<?xml version="1.0" encoding="utf-8"?>
<!-- Generator: Adobe Illustrator 16.0.0, SVG Export Plug-In . SVG Version: 6.00 Build 0)  -->
<!DOCTYPE svg PUBLIC "-//W3C//DTD SVG 1.1//EN" "http://www.w3.org/Graphics/SVG/1.1/DTD/svg11.dtd">
<svg version="1.1" id="Layer_1" xmlns="http://www.w3.org/2000/svg" xmlns:xlink="http://www.w3.org/1999/xlink" x="0px" y="0px"
	 width="960px" height="400px" viewBox="0 0 960 400" enable-background="new 0 0 960 400" xml:space="preserve">
<path fill="#474647" d="M0,400c0,0,49.746-8.407,48.051-24.509s-10.169-38.136-10.169-38.136s34.746,19.491,34.746,26.271
	s36.441,9.459,30.509-32.559s-30.509-60.661-30.509-60.661s55.933,33.898,55.085,70.339c43.22-42.373,30.508-70.339,30.508-70.339
	s47.458,56.779,26.271,81.355c52.542-8.475,58.475-55.085,58.475-55.085s35.531,34.746,17.342,59.322
	c71.641-103.39,64.014-137.288,64.014-137.288s28.813,94.983-11.865,138.136c55.932-37.288,41.525-103.712,41.525-103.712
	c27.966,32.525,7.605,121.508,72.023,101.169s80.52-128.813,80.52-128.813s49.999,60.104,19.491,96.577
	c55.933-37.255,64.407-77.933,64.407-77.933s26.271,50.984,0,86.933c32.203-6.424,39.83-26.764,39.83-26.764
	s3.391,46.611-11.017,57.628c34.746-44.068,22.034-108.797,22.034-108.797s38.983,73.203,25.424,93.542
	c72.881-55.932,61.017-102.542,61.017-102.542s35.593,54.374,19.491,86.933c55.085-2.187,57.627-31.001,57.627-31.001
	s26.272,26.272,3.391,49.153c56.779-8.475,20.339-90.679,20.339-90.679s53.389,90.679,34.745,110.17
	c35.594-49.152,27.967-79.661,27.967-79.661S950.763,344,960,400s-208.56,53.458-208.56,53.458l-754.237,0.018L0,400z"/>
<g>
	<circle fill="#474647" cx="224.322" cy="286.509" r="6.779"/>
	<path fill="#474647" d="M221.75,278c0,0,8-10.75,2-16.75s-5.5,1-10.75-5.75C212,263.5,206.25,274.5,221.75,278z"/>
	<path fill="#474647" d="M215.786,284.029c0,0-4.654-12.566-12.954-10.805c-8.301,1.762-2.159,5.156-10.68,5.881
		C198.315,284.303,204.406,295.118,215.786,284.029z"/>
	<path fill="#474647" d="M217.592,292.314c0,0-13.072-2.944-16.118,4.975c-3.046,7.92,3.147,4.621-0.888,12.16
		C208.302,307.113,220.689,307.899,217.592,292.314z"/>
	<path fill="#474647" d="M225.523,295.315c0,0-9.592,9.356-4.612,16.226c4.981,6.869,5.591-0.121,9.713,7.371
		C232.869,311.169,240.279,301.211,225.523,295.315z"/>
	<path fill="#474647" d="M232.361,290.3c0,0,2.619,13.142,11.092,12.71c8.475-0.436,2.945-4.754,11.473-4.129
		C249.657,292.779,245.346,281.141,232.361,290.3z"/>
	<path fill="#474647" d="M231.882,281.834c0,0,12.446,4.965,16.701-2.375c4.253-7.344-2.381-5.061,2.79-11.869
		C243.386,268.682,231.277,265.955,231.882,281.834z"/>
</g>
<g>
	<circle fill="#474647" cx="415.961" cy="310.652" r="6.779"/>
	<path fill="#474647" d="M413.389,302.144c0,0,8-10.75,2-16.75s-5.5,1-10.75-5.75C403.639,287.644,397.889,298.644,413.389,302.144z
		"/>
	<path fill="#474647" d="M407.425,308.173c0,0-4.654-12.566-12.954-10.805c-8.301,1.762-2.159,5.156-10.68,5.881
		C389.954,308.446,396.045,319.262,407.425,308.173z"/>
	<path fill="#474647" d="M409.23,316.458c0,0-13.072-2.944-16.118,4.975c-3.046,7.92,3.147,4.621-0.888,12.16
		C399.94,331.257,412.328,332.043,409.23,316.458z"/>
	<path fill="#474647" d="M417.162,319.459c0,0-9.592,9.356-4.612,16.226c4.981,6.869,5.591-0.121,9.713,7.371
		C424.508,335.312,431.918,325.354,417.162,319.459z"/>
	<path fill="#474647" d="M424,314.443c0,0,2.619,13.142,11.092,12.71c8.475-0.436,2.945-4.754,11.473-4.129
		C441.296,316.923,436.984,305.284,424,314.443z"/>
	<path fill="#474647" d="M423.521,305.978c0,0,12.446,4.965,16.701-2.375c4.253-7.344-2.381-5.061,2.79-11.869
		C435.024,292.825,422.916,290.099,423.521,305.978z"/>
</g>
<g>
	<circle fill="#474647" cx="556.221" cy="242.295" r="6.779"/>
	<path fill="#474647" d="M553.648,233.786c0,0,8-10.75,2-16.75s-5.5,1-10.75-5.75C543.898,219.286,538.148,230.286,553.648,233.786z
		"/>
	<path fill="#474647" d="M547.685,239.815c0,0-4.654-12.566-12.954-10.805c-8.301,1.762-2.159,5.156-10.68,5.881
		C530.214,240.089,536.305,250.904,547.685,239.815z"/>
	<path fill="#474647" d="M549.49,248.101c0,0-13.072-2.944-16.118,4.975c-3.046,7.92,3.147,4.621-0.888,12.16
		C540.2,262.899,552.588,263.686,549.49,248.101z"/>
	<path fill="#474647" d="M557.422,251.102c0,0-9.592,9.356-4.612,16.226c4.981,6.869,5.591-0.121,9.713,7.371
		C564.768,266.955,572.178,256.997,557.422,251.102z"/>
	<path fill="#474647" d="M564.26,246.086c0,0,2.619,13.142,11.092,12.71c8.475-0.436,2.945-4.754,11.473-4.129
		C581.556,248.565,577.244,236.927,564.26,246.086z"/>
	<path fill="#474647" d="M563.78,237.62c0,0,12.446,4.965,16.701-2.375c4.253-7.344-2.381-5.061,2.79-11.869
		C575.284,224.468,563.176,221.741,563.78,237.62z"/>
</g>
<g>
	<circle fill="#474647" cx="690.221" cy="266.893" r="6.779"/>
	<path fill="#474647" d="M687.648,258.384c0,0,8-10.75,2-16.75s-5.5,1-10.75-5.75C677.898,243.884,672.148,254.884,687.648,258.384z
		"/>
	<path fill="#474647" d="M681.685,264.413c0,0-4.654-12.566-12.954-10.805c-8.301,1.762-2.159,5.156-10.68,5.881
		C664.214,264.687,670.305,275.502,681.685,264.413z"/>
	<path fill="#474647" d="M683.49,272.698c0,0-13.072-2.944-16.118,4.975c-3.046,7.92,3.147,4.621-0.888,12.16
		C674.2,287.497,686.588,288.283,683.49,272.698z"/>
	<path fill="#474647" d="M691.422,275.699c0,0-9.592,9.356-4.612,16.226c4.981,6.869,5.591-0.121,9.713,7.371
		C698.768,291.553,706.178,281.595,691.422,275.699z"/>
	<path fill="#474647" d="M698.26,270.684c0,0,2.619,13.142,11.092,12.71c8.475-0.436,2.945-4.754,11.473-4.129
		C715.556,273.163,711.244,261.524,698.26,270.684z"/>
	<path fill="#474647" d="M697.78,262.218c0,0,12.446,4.965,16.701-2.375c4.253-7.344-2.381-5.061,2.79-11.869
		C709.284,249.065,697.176,246.339,697.78,262.218z"/>
</g>
</svg>
