<?xml version="1.0" encoding="utf-8"?>
<!-- Generator: Adobe Illustrator 16.0.0, SVG Export Plug-In . SVG Version: 6.00 Build 0)  -->
<!DOCTYPE svg PUBLIC "-//W3C//DTD SVG 1.1//EN" "http://www.w3.org/Graphics/SVG/1.1/DTD/svg11.dtd">
<svg version="1.1" id="Layer_1" xmlns="http://www.w3.org/2000/svg" xmlns:xlink="http://www.w3.org/1999/xlink" x="0px" y="0px"
	 width="960px" height="400px" viewBox="0 0 960 400" enable-background="new 0 0 960 400" xml:space="preserve">
<path fill="#474647" d="M-0.125,380c0,0,49.871,11.593,48.176-4.509c-1.695-16.103-10.169-38.136-10.169-38.136
	s34.746,19.49,34.746,26.271s36.441,9.459,30.509-32.56c-5.932-42.018-30.509-60.66-30.509-60.66s55.933,33.898,55.085,70.339
	c43.22-42.373,30.508-70.339,30.508-70.339s47.458,56.779,26.271,81.354c52.542-8.475,58.475-55.085,58.475-55.085
	s35.531,34.746,17.342,59.322c71.641-103.391,64.014-137.288,64.014-137.288s28.812,94.983-11.865,138.136
	c55.932-37.287,41.525-103.712,41.525-103.712c27.966,32.525,7.604,121.509,72.022,101.169
	c64.418-20.339,80.521-128.812,80.521-128.812s49.999,60.104,19.49,96.576c55.934-37.254,64.407-77.933,64.407-77.933
	s26.271,50.984,0,86.933c32.203-6.424,39.83-26.764,39.83-26.764s3.391,46.611-11.017,57.629
	c34.746-44.068,22.034-108.798,22.034-108.798s38.982,73.203,25.424,93.542c72.881-55.932,61.017-102.542,61.017-102.542
	s35.593,54.374,19.491,86.933c55.085-2.187,57.627-31,57.627-31s26.271,26.271,3.391,49.152c56.779-8.475,20.34-90.679,20.34-90.679
	s53.389,90.679,34.744,110.17c35.595-49.151,66.195-69.033,66.195-69.033S903.5,365.5,960.162,380C1015.147,394.07,995,461,995,461
	l-997.796-7.524L-0.125,380z"/>
<g>
	<circle fill="#474647" cx="211.322" cy="287.509" r="6.779"/>
	<path fill="#474647" d="M208.75,279c0,0,8-10.75,2-16.75s-5.5,1-10.75-5.75C199,264.5,193.25,275.5,208.75,279z"/>
	<path fill="#474647" d="M202.786,285.029c0,0-4.654-12.566-12.954-10.805c-8.301,1.762-2.159,5.155-10.68,5.881
		C185.315,285.303,191.406,296.118,202.786,285.029z"/>
	<path fill="#474647" d="M204.592,293.314c0,0-13.072-2.944-16.118,4.975c-3.046,7.92,3.147,4.621-0.888,12.16
		C195.302,308.113,207.689,308.898,204.592,293.314z"/>
	<path fill="#474647" d="M212.523,296.314c0,0-9.592,9.356-4.612,16.227c4.981,6.869,5.591-0.121,9.713,7.371
		C219.869,312.169,227.279,302.211,212.523,296.314z"/>
	<path fill="#474647" d="M219.361,291.3c0,0,2.619,13.142,11.092,12.71c8.475-0.436,2.945-4.754,11.473-4.129
		C236.657,293.779,232.346,282.141,219.361,291.3z"/>
	<path fill="#474647" d="M218.882,282.834c0,0,12.446,4.965,16.701-2.375c4.253-7.344-2.381-5.061,2.79-11.869
		C230.386,269.682,218.277,266.955,218.882,282.834z"/>
</g>
<g>
	<circle fill="#474647" cx="415.961" cy="310.652" r="6.779"/>
	<path fill="#474647" d="M413.389,302.145c0,0,8-10.75,2-16.75s-5.5,1-10.75-5.75C403.639,287.645,397.889,298.645,413.389,302.145z
		"/>
	<path fill="#474647" d="M407.425,308.173c0,0-4.653-12.565-12.954-10.805c-8.301,1.762-2.159,5.155-10.68,5.881
		C389.954,308.445,396.045,319.262,407.425,308.173z"/>
	<path fill="#474647" d="M409.23,316.458c0,0-13.072-2.944-16.118,4.976s3.146,4.621-0.889,12.159
		C399.94,331.257,412.328,332.043,409.23,316.458z"/>
	<path fill="#474647" d="M417.162,319.459c0,0-9.592,9.355-4.612,16.227c4.981,6.869,5.591-0.121,9.713,7.371
		C424.508,335.312,431.918,325.354,417.162,319.459z"/>
	<path fill="#474647" d="M424,314.443c0,0,2.619,13.142,11.092,12.709c8.476-0.436,2.945-4.754,11.474-4.129
		C441.296,316.923,436.984,305.284,424,314.443z"/>
	<path fill="#474647" d="M423.521,305.979c0,0,12.445,4.965,16.7-2.375c4.253-7.345-2.381-5.062,2.79-11.869
		C435.024,292.825,422.916,290.1,423.521,305.979z"/>
</g>
<g>
	<circle fill="#474647" cx="556.221" cy="242.295" r="6.779"/>
	<path fill="#474647" d="M553.648,233.786c0,0,8-10.75,2-16.75s-5.5,1-10.75-5.75C543.898,219.286,538.148,230.286,553.648,233.786z
		"/>
	<path fill="#474647" d="M547.685,239.814c0,0-4.653-12.565-12.953-10.805c-8.302,1.762-2.159,5.156-10.681,5.881
		C530.214,240.089,536.305,250.904,547.685,239.814z"/>
	<path fill="#474647" d="M549.49,248.102c0,0-13.072-2.944-16.118,4.975c-3.046,7.92,3.146,4.621-0.888,12.16
		C540.2,262.898,552.588,263.686,549.49,248.102z"/>
	<path fill="#474647" d="M557.422,251.102c0,0-9.592,9.356-4.612,16.227c4.981,6.869,5.592-0.121,9.714,7.371
		C564.768,266.955,572.178,256.997,557.422,251.102z"/>
	<path fill="#474647" d="M564.26,246.086c0,0,2.619,13.143,11.092,12.71c8.476-0.437,2.945-4.754,11.474-4.129
		C581.556,248.564,577.244,236.927,564.26,246.086z"/>
	<path fill="#474647" d="M563.78,237.62c0,0,12.445,4.965,16.701-2.375c4.253-7.345-2.382-5.062,2.79-11.869
		C575.284,224.468,563.176,221.741,563.78,237.62z"/>
</g>
<g>
	<circle fill="#474647" cx="690.221" cy="266.893" r="6.779"/>
	<path fill="#474647" d="M687.648,258.384c0,0,8-10.75,2-16.75s-5.5,1-10.75-5.75C677.898,243.884,672.148,254.884,687.648,258.384z
		"/>
	<path fill="#474647" d="M681.685,264.413c0,0-4.653-12.565-12.953-10.806c-8.302,1.763-2.159,5.156-10.681,5.882
		C664.214,264.688,670.305,275.502,681.685,264.413z"/>
	<path fill="#474647" d="M683.49,272.698c0,0-13.072-2.944-16.118,4.975c-3.046,7.92,3.146,4.621-0.888,12.16
		C674.2,287.497,686.588,288.283,683.49,272.698z"/>
	<path fill="#474647" d="M691.422,275.699c0,0-9.592,9.355-4.612,16.226c4.981,6.869,5.592-0.12,9.714,7.371
		C698.768,291.553,706.178,281.596,691.422,275.699z"/>
	<path fill="#474647" d="M698.26,270.684c0,0,2.619,13.143,11.092,12.711c8.476-0.437,2.945-4.754,11.474-4.129
		C715.556,273.163,711.244,261.523,698.26,270.684z"/>
	<path fill="#474647" d="M697.78,262.218c0,0,12.445,4.966,16.701-2.375c4.253-7.344-2.382-5.061,2.79-11.868
		C709.284,249.064,697.176,246.339,697.78,262.218z"/>
</g>
</svg>
