<?xml version="1.0" encoding="utf-8"?>
<!-- Generator: Adobe Illustrator 16.0.0, SVG Export Plug-In . SVG Version: 6.00 Build 0)  -->
<!DOCTYPE svg PUBLIC "-//W3C//DTD SVG 1.1//EN" "http://www.w3.org/Graphics/SVG/1.1/DTD/svg11.dtd">
<svg version="1.1" id="Layer_1" xmlns="http://www.w3.org/2000/svg" xmlns:xlink="http://www.w3.org/1999/xlink" x="0px" y="0px"
	 width="100px" height="100px" viewBox="0 0 100 100" enable-background="new 0 0 100 100" xml:space="preserve">
<g id="Behance_1_">
	<path fill="#FFFFFF" d="M41.494,47.119c1.992-1.002,3.499-2.116,4.526-3.33c1.834-2.171,2.743-5.05,2.743-8.62
		c0-3.469-0.909-6.443-2.721-8.932c-3.02-4.054-8.14-6.13-15.375-6.237H2v58.524h26.731c3.015,0,5.803-0.256,8.383-0.785
		c2.579-0.534,4.809-1.509,6.699-2.939c1.682-1.248,3.082-2.785,4.199-4.605c1.768-2.751,2.647-5.863,2.647-9.333
		c0-3.363-0.772-6.226-2.309-8.575C46.8,49.931,44.519,48.21,41.494,47.119z M13.825,30.163h12.914c2.84,0,5.176,0.306,7.016,0.914
		c2.123,0.879,3.184,2.678,3.184,5.413c0,2.45-0.807,4.165-2.41,5.134c-1.614,0.969-3.708,1.454-6.276,1.454H13.825V30.163z
		 M34.241,67.338c-1.429,0.685-3.438,1.03-6.012,1.03H13.825V52.76h14.607c2.54,0.021,4.521,0.356,5.933,0.991
		c2.522,1.142,3.775,3.229,3.775,6.281C38.141,63.63,36.843,66.057,34.241,67.338z"/>
	<rect x="63.343" y="22.729" fill="#FFFFFF" width="25.423" height="7.284"/>
	<path fill="#FFFFFF" d="M94.1,42.53c-1.987-2.918-4.51-5.056-7.575-6.404c-3.059-1.353-6.496-2.032-10.317-2.032
		c-6.429,0-11.65,2.01-15.687,6.002c-4.023,4.004-6.039,9.756-6.039,17.257c0,7.996,2.224,13.776,6.7,17.323
		C65.635,78.229,70.788,80,76.63,80c7.072,0,12.576-2.104,16.505-6.309c2.518-2.651,3.939-5.263,4.25-7.823H85.673
		c-0.678,1.27-1.468,2.26-2.365,2.979c-1.631,1.32-3.759,1.982-6.361,1.982c-2.473,0-4.578-0.546-6.327-1.631
		c-2.89-1.744-4.402-4.789-4.595-9.127h31.965c0.051-3.737-0.074-6.61-0.385-8.593C97.074,48.088,95.911,45.103,94.1,42.53z
		 M66.307,52.604c0.418-2.817,1.439-5.051,3.06-6.699c1.619-1.648,3.911-2.472,6.846-2.472c2.71,0,4.974,0.774,6.813,2.327
		c1.817,1.565,2.845,3.837,3.054,6.844H66.307z"/>
</g>
</svg>
