<?xml version="1.0" encoding="utf-8"?>
<!-- Generator: Adobe Illustrator 16.0.0, SVG Export Plug-In . SVG Version: 6.00 Build 0)  -->
<!DOCTYPE svg PUBLIC "-//W3C//DTD SVG 1.1//EN" "http://www.w3.org/Graphics/SVG/1.1/DTD/svg11.dtd">
<svg version="1.1" id="Layer_1" xmlns="http://www.w3.org/2000/svg" xmlns:xlink="http://www.w3.org/1999/xlink" x="0px" y="0px"
	 width="100px" height="100px" viewBox="0 0 100 100" enable-background="new 0 0 100 100" xml:space="preserve">
<g id="LinkedIn_1_">
	<rect x="16.054" y="34.344" fill="#FFFFFF" width="13.936" height="44.156"/>
	<path fill="#FFFFFF" d="M68.063,33.919c-7.982,0-12.985,4.325-13.91,7.355v-6.93H38.498c0.201,3.679,0,44.156,0,44.156h15.655
		V54.605c0-1.328-0.063-2.655,0.34-3.609c1.077-2.654,3.389-5.41,7.547-5.41c5.436,0,7.907,4.083,7.907,10.064V78.5H85.75V53.948
		C85.75,40.271,77.969,33.919,68.063,33.919z"/>
	<path fill="#FFFFFF" d="M22.763,13.5c-5.146,0-8.513,3.305-8.513,7.667c0,4.278,3.271,7.654,8.315,7.654h0.101
		c5.238,0,8.5-3.388,8.5-7.667C31.065,16.797,27.904,13.5,22.763,13.5z"/>
</g>
</svg>
